<svg width="18" height="25" viewBox="0 0 18 25" fill="none" xmlns="http://www.w3.org/2000/svg">
<path d="M9 0C4.0374 0 0 3.94277 0 8.78906C0 10.4265 0.46445 12.0244 1.34345 13.4107L8.4877 24.6538C8.62455 24.8691 8.86565 25 9.12495 25C9.12695 25 9.1289 25 9.1309 25C9.39245 24.998 9.63405 24.8631 9.7684 24.6439L16.7306 13.292C17.5611 11.935 18 10.3779 18 8.78906C18 3.94277 13.9626 0 9 0ZM15.4433 12.5399L9.1136 22.8606L2.61835 12.639C1.8867 11.4851 1.49 10.1538 1.49 8.78906C1.49 4.75049 4.8645 1.45508 9 1.45508C13.1355 1.45508 16.505 4.75049 16.505 8.78906C16.505 10.1133 16.1345 11.4105 15.4433 12.5399Z" fill="#2C41FF"/>
<path d="M8.90002 4.39453C6.41872 4.39453 4.40002 6.41323 4.40002 8.89453C4.40002 11.36 6.38587 13.3945 8.90002 13.3945C11.4452 13.3945 13.4 11.3329 13.4 8.89453C13.4 6.41323 11.3813 4.39453 8.90002 4.39453ZM8.90002 11.9045C7.23717 11.9045 5.89002 10.5529 5.89002 8.89453C5.89002 7.24033 7.24582 5.88453 8.90002 5.88453C10.5542 5.88453 11.905 7.24033 11.905 8.89453C11.905 10.5287 10.5892 11.9045 8.90002 11.9045Z" fill="#2C41FF"/>
</svg>
