<svg width="160" height="40" viewBox="0 0 160 40" fill="none" xmlns="http://www.w3.org/2000/svg">
<path d="M67.1875 22.5078L66.9727 21.6289C67.2331 21.5898 67.8451 21.5312 68.8086 21.4531C69.7721 21.362 70.3776 21.2904 70.625 21.2383V27.4492L69.1016 27.7617C69.0885 27.6315 69.082 27.3255 69.082 26.8438C69.082 26.349 69.0755 26.0299 69.0625 25.8867C69.0625 25.9128 69.0169 25.9909 68.9258 26.1211C68.8346 26.2383 68.6914 26.388 68.4961 26.5703C68.3008 26.7526 68.0729 26.9284 67.8125 27.0977C67.5521 27.2669 67.2201 27.4102 66.8164 27.5273C66.4128 27.6445 65.9896 27.7031 65.5469 27.7031C62.3828 27.7031 60.8008 25.2422 60.8008 20.3203C60.8008 19.474 60.8659 18.6536 60.9961 17.8594C61.1263 17.0521 61.3477 16.2448 61.6602 15.4375C61.9727 14.6302 62.4414 13.9792 63.0664 13.4844C63.7044 12.9896 64.4596 12.7422 65.332 12.7422C66.0872 12.7422 66.8685 12.8724 67.6758 13.1328C68.4831 13.3932 69.1732 13.7188 69.7461 14.1094L68.9648 15.0078C67.9492 14.2526 66.9466 13.875 65.957 13.875C65.306 13.875 64.7461 14.0312 64.2773 14.3438C63.8086 14.6562 63.4505 15.0339 63.2031 15.4766C62.9688 15.9193 62.7799 16.4792 62.6367 17.1562C62.5065 17.8333 62.4219 18.4193 62.3828 18.9141C62.3568 19.4089 62.3438 19.9883 62.3438 20.6523C62.3438 22.2409 62.6367 23.543 63.2227 24.5586C63.8086 25.5612 64.5703 26.0625 65.5078 26.0625C65.9115 26.0625 66.3021 25.9974 66.6797 25.8672C67.0703 25.737 67.4023 25.5807 67.6758 25.3984C67.9492 25.2161 68.1966 25.0273 68.418 24.832C68.6393 24.6367 68.8021 24.474 68.9062 24.3438C69.0234 24.2135 69.082 24.1354 69.082 24.1094V22.8594L67.1875 22.5078ZM75.957 12.8398L77.4414 12.9375C77.806 14.5521 78.5547 16.8372 79.6875 19.793C80.8203 22.7357 81.569 24.9362 81.9336 26.3945C81.9336 26.7721 81.8685 27.0521 81.7383 27.2344C81.6081 27.4297 81.4453 27.5273 81.25 27.5273C81.0807 27.5273 80.918 27.4557 80.7617 27.3125C80.6185 27.1823 80.5208 26.9935 80.4688 26.7461C80.3516 26.1732 79.974 25.0273 79.3359 23.3086C76.6536 22.9701 74.9674 22.7617 74.2773 22.6836C74.1081 23.1523 73.8997 23.9141 73.6523 24.9688C73.4049 26.0234 73.2096 26.7526 73.0664 27.1562C72.8711 27.3906 72.6497 27.5078 72.4023 27.5078C72.1289 27.5078 71.8945 27.3841 71.6992 27.1367C71.5039 26.9023 71.4062 26.6094 71.4062 26.2578C71.8229 24.7344 72.5781 22.4948 73.6719 19.5391C74.7656 16.5833 75.5273 14.3503 75.957 12.8398ZM76.6406 14.8125C76.3802 16.388 75.6576 18.6992 74.4727 21.7461H76.6602C77.6497 21.7461 78.4766 21.7786 79.1406 21.8438C77.7995 18.9661 76.9661 16.6224 76.6406 14.8125ZM82.7148 26.8828L82.7734 12.7812C85.6641 12.8073 87.8971 13.5495 89.4727 15.0078C91.0482 16.4531 91.8359 18.5755 91.8359 21.375C91.8359 22.2734 91.6016 23.0938 91.1328 23.8359C90.6641 24.5781 90.0586 25.1706 89.3164 25.6133C88.5872 26.056 87.793 26.401 86.9336 26.6484C86.0872 26.8828 85.2474 27 84.4141 27C83.8932 27 83.3268 26.9609 82.7148 26.8828ZM84.1797 25.6914H84.5117C85.2539 25.6914 85.9701 25.6068 86.6602 25.4375C87.3503 25.2552 87.9883 24.9883 88.5742 24.6367C89.1602 24.2852 89.6289 23.8034 89.9805 23.1914C90.332 22.5664 90.5078 21.8503 90.5078 21.043C90.5078 19.9492 90.1758 18.8424 89.5117 17.7227C88.8607 16.5898 88.0664 15.6784 87.1289 14.9883C86.2044 14.2852 85.3451 13.9336 84.5508 13.9336C84.3815 13.9336 84.2188 13.9531 84.0625 13.9922C84.0625 14.7734 84.1016 18.6732 84.1797 25.6914ZM112.578 27L111.094 27.1367C110.378 22.6445 109.603 18.7969 108.77 15.5938C108.34 16.6094 107.865 18.0417 107.344 19.8906C106.836 21.7266 106.484 22.918 106.289 23.4648C106.263 23.4648 106.217 23.4714 106.152 23.4844C106.1 23.4844 106.055 23.4844 106.016 23.4844C105.833 23.4844 105.534 23.4648 105.117 23.4258C104.701 23.3867 104.434 23.3672 104.316 23.3672C104.303 22.9896 103.971 21.7331 103.32 19.5977C102.669 17.4492 102.279 16.0755 102.148 15.4766C101.914 17.5859 101.003 21.4271 99.4141 27L98.2031 26.8828C98.3854 25.4635 98.8346 23.2305 99.5508 20.1836C100.267 17.1367 100.69 14.7799 100.82 13.1133C101.055 13.0872 101.243 13.0742 101.387 13.0742C101.517 13.0742 101.999 13.1263 102.832 13.2305C103.014 13.2565 103.275 13.849 103.613 15.0078C103.965 16.1536 104.316 17.4167 104.668 18.7969C105.02 20.1771 105.241 20.9909 105.332 21.2383C105.697 20.3398 106.133 18.8815 106.641 16.8633C107.161 14.8451 107.526 13.5625 107.734 13.0156C107.943 13.0286 108.6 13.0872 109.707 13.1914C110.046 14.5065 110.371 15.9258 110.684 17.4492C111.009 18.9727 111.354 20.7044 111.719 22.6445C112.096 24.5846 112.383 26.0365 112.578 27ZM113.398 20.457C113.398 20.0143 113.398 19.6823 113.398 19.4609C113.398 19.2266 113.405 18.875 113.418 18.4062C113.444 17.9375 113.47 17.5664 113.496 17.293C113.535 17.0195 113.587 16.668 113.652 16.2383C113.717 15.7956 113.802 15.444 113.906 15.1836C114.01 14.9102 114.128 14.6042 114.258 14.2656C114.401 13.9271 114.577 13.6536 114.785 13.4453C114.993 13.237 115.221 13.0417 115.469 12.8594C115.716 12.6641 116.009 12.5208 116.348 12.4297C116.686 12.3385 117.057 12.293 117.461 12.293C118.268 12.293 118.971 12.4557 119.57 12.7812C120.169 13.0938 120.638 13.4909 120.977 13.9727C121.315 14.4544 121.582 15.0469 121.777 15.75C121.986 16.4531 122.116 17.1237 122.168 17.7617C122.233 18.3997 122.266 19.1029 122.266 19.8711C122.266 20.3919 122.253 20.8607 122.227 21.2773C122.214 21.694 122.174 22.1693 122.109 22.7031C122.057 23.224 121.973 23.6862 121.855 24.0898C121.751 24.4935 121.602 24.9036 121.406 25.3203C121.211 25.724 120.977 26.0625 120.703 26.3359C120.443 26.5964 120.111 26.8112 119.707 26.9805C119.303 27.1497 118.854 27.2344 118.359 27.2344C117.552 27.2344 116.855 27.1367 116.27 26.9414C115.697 26.7461 115.221 26.4727 114.844 26.1211C114.479 25.7695 114.186 25.3073 113.965 24.7344C113.757 24.1615 113.607 23.5365 113.516 22.8594C113.438 22.1823 113.398 21.3815 113.398 20.457ZM120.859 20.6133C120.859 19.9753 120.807 19.3112 120.703 18.6211C120.612 17.931 120.449 17.1888 120.215 16.3945C119.993 15.6003 119.635 14.9557 119.141 14.4609C118.646 13.9531 118.053 13.6992 117.363 13.6992C116.842 13.6992 116.38 14.0508 115.977 14.7539C115.586 15.444 115.306 16.2253 115.137 17.0977C114.967 17.957 114.883 18.7708 114.883 19.5391C114.883 20.0729 114.883 20.4831 114.883 20.7695C114.896 21.043 114.922 21.4401 114.961 21.9609C115 22.4688 115.052 22.8724 115.117 23.1719C115.195 23.4714 115.312 23.8164 115.469 24.207C115.625 24.5977 115.807 24.9036 116.016 25.125C116.237 25.3333 116.517 25.5221 116.855 25.6914C117.207 25.8477 117.598 25.9323 118.027 25.9453C118.978 25.8932 119.688 25.3594 120.156 24.3438C120.625 23.3281 120.859 22.0846 120.859 20.6133ZM122.188 13.8945L121.992 13.0156L129.453 12.5859C129.779 12.599 130.052 12.7161 130.273 12.9375C130.495 13.1589 130.605 13.3997 130.605 13.6602C130.605 13.8294 130.54 13.9792 130.41 14.1094C130.28 14.2396 130.085 14.3177 129.824 14.3438L126.543 14.168C126.868 18.7643 127.109 22.944 127.266 26.707C127.148 27.0977 126.927 27.293 126.602 27.293C126.367 27.293 126.139 27.1953 125.918 27C125.697 26.8177 125.56 26.5898 125.508 26.3164C125.534 25.6133 125.547 24.5456 125.547 23.1133C125.547 22.5794 125.54 21.7786 125.527 20.7109C125.527 19.6432 125.527 18.8424 125.527 18.3086C125.527 16.7591 125.553 15.3594 125.605 14.1094C124.134 14.0052 122.995 13.9336 122.188 13.8945ZM130.723 20.457C130.723 20.0143 130.723 19.6823 130.723 19.4609C130.723 19.2266 130.729 18.875 130.742 18.4062C130.768 17.9375 130.794 17.5664 130.82 17.293C130.859 17.0195 130.911 16.668 130.977 16.2383C131.042 15.7956 131.126 15.444 131.23 15.1836C131.335 14.9102 131.452 14.6042 131.582 14.2656C131.725 13.9271 131.901 13.6536 132.109 13.4453C132.318 13.237 132.546 13.0417 132.793 12.8594C133.04 12.6641 133.333 12.5208 133.672 12.4297C134.01 12.3385 134.382 12.293 134.785 12.293C135.592 12.293 136.296 12.4557 136.895 12.7812C137.493 13.0938 137.962 13.4909 138.301 13.9727C138.639 14.4544 138.906 15.0469 139.102 15.75C139.31 16.4531 139.44 17.1237 139.492 17.7617C139.557 18.3997 139.59 19.1029 139.59 19.8711C139.59 20.3919 139.577 20.8607 139.551 21.2773C139.538 21.694 139.499 22.1693 139.434 22.7031C139.382 23.224 139.297 23.6862 139.18 24.0898C139.076 24.4935 138.926 24.9036 138.73 25.3203C138.535 25.724 138.301 26.0625 138.027 26.3359C137.767 26.5964 137.435 26.8112 137.031 26.9805C136.628 27.1497 136.178 27.2344 135.684 27.2344C134.876 27.2344 134.18 27.1367 133.594 26.9414C133.021 26.7461 132.546 26.4727 132.168 26.1211C131.803 25.7695 131.51 25.3073 131.289 24.7344C131.081 24.1615 130.931 23.5365 130.84 22.8594C130.762 22.1823 130.723 21.3815 130.723 20.457ZM138.184 20.6133C138.184 19.9753 138.132 19.3112 138.027 18.6211C137.936 17.931 137.773 17.1888 137.539 16.3945C137.318 15.6003 136.96 14.9557 136.465 14.4609C135.97 13.9531 135.378 13.6992 134.688 13.6992C134.167 13.6992 133.704 14.0508 133.301 14.7539C132.91 15.444 132.63 16.2253 132.461 17.0977C132.292 17.957 132.207 18.7708 132.207 19.5391C132.207 20.0729 132.207 20.4831 132.207 20.7695C132.22 21.043 132.246 21.4401 132.285 21.9609C132.324 22.4688 132.376 22.8724 132.441 23.1719C132.52 23.4714 132.637 23.8164 132.793 24.207C132.949 24.5977 133.132 24.9036 133.34 25.125C133.561 25.3333 133.841 25.5221 134.18 25.6914C134.531 25.8477 134.922 25.9323 135.352 25.9453C136.302 25.8932 137.012 25.3594 137.48 24.3438C137.949 23.3281 138.184 22.0846 138.184 20.6133ZM150.234 27.3125L150.547 28.1133C149.961 28.1003 149.349 27.9115 148.711 27.5469C148.073 27.1823 147.474 26.7266 146.914 26.1797C146.367 25.6198 145.872 25.0599 145.43 24.5C145 23.9271 144.629 23.3672 144.316 22.8203L142.773 22.6445C142.799 23.5951 142.852 25.0729 142.93 27.0781C142.812 27.4818 142.585 27.6836 142.246 27.6836C142.012 27.6836 141.784 27.5859 141.562 27.3906C141.354 27.2083 141.224 26.9805 141.172 26.707C141.211 25.6133 141.25 23.4844 141.289 20.3203C141.341 17.1562 141.406 14.7083 141.484 12.9766L142.363 12.7422C142.363 13.1589 142.37 13.3932 142.383 13.4453C143.125 12.9505 144.167 12.7031 145.508 12.7031C146.953 12.7031 148.034 13.1589 148.75 14.0703C149.466 14.9688 149.824 16.2318 149.824 17.8594C149.824 18.4583 149.753 19.0378 149.609 19.5977C149.466 20.1445 149.251 20.6589 148.965 21.1406C148.691 21.6224 148.307 22.0195 147.812 22.332C147.318 22.6445 146.751 22.8268 146.113 22.8789C146.569 23.8294 147.181 24.7539 147.949 25.6523C148.717 26.5508 149.479 27.1042 150.234 27.3125ZM142.559 14.7539L142.715 20.8477C143.431 21.2383 144.258 21.4336 145.195 21.4336C146.094 21.4336 146.855 21.0951 147.48 20.418C148.105 19.7409 148.418 18.9141 148.418 17.9375C148.418 16.8828 148.092 15.9323 147.441 15.0859C146.79 14.2396 145.977 13.8164 145 13.8164C144.206 13.8164 143.392 14.1289 142.559 14.7539ZM151.289 25.8867L151.562 24.793C152.695 25.4049 153.809 25.7109 154.902 25.7109C155.684 25.7109 156.348 25.5547 156.895 25.2422C157.454 24.9167 157.734 24.3958 157.734 23.6797C157.734 23.0417 157.5 22.4622 157.031 21.9414C156.562 21.4076 155.996 20.9388 155.332 20.5352C154.668 20.1315 154.004 19.7214 153.34 19.3047C152.676 18.875 152.109 18.3542 151.641 17.7422C151.172 17.1172 150.938 16.4271 150.938 15.6719C150.938 14.7474 151.27 13.9076 151.934 13.1523C152.598 12.3841 153.398 12 154.336 12C155.052 12 155.846 12.1432 156.719 12.4297C157.604 12.7161 158.346 13.0026 158.945 13.2891L158.711 14.0703C157.227 13.5625 155.977 13.3086 154.961 13.3086C154.336 13.3086 153.802 13.5104 153.359 13.9141C152.917 14.3177 152.695 14.8385 152.695 15.4766C152.695 15.9583 152.819 16.3945 153.066 16.7852C153.314 17.1758 153.633 17.5143 154.023 17.8008C154.427 18.0872 154.87 18.3672 155.352 18.6406C155.846 18.9141 156.335 19.207 156.816 19.5195C157.298 19.832 157.734 20.1706 158.125 20.5352C158.529 20.8997 158.854 21.362 159.102 21.9219C159.349 22.4688 159.473 23.0872 159.473 23.7773C159.473 24.7539 159.16 25.5547 158.535 26.1797C157.91 26.7917 157.096 27.0977 156.094 27.0977C155.234 27.0977 154.316 26.9805 153.34 26.7461C152.376 26.4987 151.693 26.2122 151.289 25.8867Z" fill="white"/>
<rect x="0.5" y="0.5" width="39" height="39" rx="7.5" stroke="white"/>
<g clip-path="url(#clip0)">
<path d="M30.6309 27.7624L25.1129 22.2444C24.9691 22.1005 24.7366 22.1005 24.5927 22.2444L24.1171 22.72L23.5337 22.1366L24.0093 21.6609C24.1531 21.5171 24.1531 21.2846 24.0093 21.1408L22.7979 19.9294L24.6373 18.09H27.7958C27.8932 18.09 27.987 18.0514 28.0558 17.9822L30.6309 15.4072C30.7001 15.3384 30.7387 15.2446 30.7387 15.1471V12.572C30.7387 12.4234 30.6489 12.2891 30.5117 12.2321C30.3738 12.1747 30.2156 12.2064 30.1107 12.3119L27.6435 14.7792H25.2207V12.3565L27.688 9.88918C27.7932 9.78397 27.8248 9.62579 27.7678 9.4882C27.7108 9.35099 27.5765 9.26123 27.4279 9.26123H24.8528C24.7553 9.26123 24.6615 9.29986 24.5927 9.36902L22.0177 11.9441C21.9485 12.0129 21.9099 12.1067 21.9099 12.2042V15.3627L19.3348 17.9377L13.4133 12.0162L13.07 10.6433C13.0406 10.526 12.9556 10.4307 12.8423 10.388L9.89941 9.28441C9.76477 9.23438 9.61247 9.26675 9.5102 9.36865L8.77447 10.1044C8.67257 10.2066 8.63946 10.3589 8.68986 10.494L9.79346 13.4369C9.83613 13.5502 9.93141 13.6355 10.0488 13.6646L11.4213 14.0078L17.3432 19.9294L14.7681 22.5044H11.6096C11.5121 22.5044 11.4183 22.5431 11.3495 22.6122L8.77447 25.1873C8.70531 25.2561 8.66668 25.3499 8.66668 25.4474V28.0224C8.66668 28.1711 8.75644 28.3053 8.89366 28.3623C9.03161 28.419 9.18942 28.3877 9.29463 28.2825L11.7619 25.8152H14.1847V28.238L11.7174 30.7053C11.6122 30.8105 11.5806 30.9687 11.6376 31.1063C11.6946 31.2435 11.8289 31.3332 11.9775 31.3332H14.5526C14.65 31.3332 14.7438 31.2946 14.8126 31.2255L17.3877 28.6504C17.4569 28.5816 17.4955 28.4878 17.4955 28.3903V25.2318L19.3348 23.3925L20.5462 24.6038C20.69 24.7477 20.9225 24.7477 21.0664 24.6038L21.542 24.1282L22.1255 24.7116L21.6498 25.1873C21.506 25.3311 21.506 25.5636 21.6498 25.7074L27.1678 31.2255C27.2395 31.2972 27.3337 31.3332 27.4279 31.3332C27.5221 31.3332 27.6162 31.2972 27.688 31.2255L30.6309 28.2825C30.7747 28.1387 30.7747 27.9062 30.6309 27.7624ZM11.8697 13.4156C11.8226 13.3685 11.7634 13.335 11.699 13.3188L10.4148 12.9977L9.46238 10.4575L9.86299 10.0569L12.4031 11.0093L12.7243 12.2936C12.7404 12.3583 12.7739 12.4172 12.821 12.4642L18.8147 18.4579L17.8634 19.4092L11.8697 13.4156ZM19.0747 22.6122L16.8675 24.8194C16.7984 24.8882 16.7598 24.982 16.7598 25.0795V28.238L14.4003 30.5975H12.8655L14.8126 28.6504C14.8818 28.5816 14.9204 28.4878 14.9204 28.3903V25.4474C14.9204 25.2443 14.7556 25.0795 14.5526 25.0795H11.6096C11.5121 25.0795 11.4183 25.1181 11.3495 25.1873L9.40242 27.1344V25.5997L11.7619 23.2402H14.9204C15.0179 23.2402 15.1117 23.2015 15.1805 23.1324L18.1234 20.1894L19.5949 18.718L22.5378 15.775C22.607 15.7063 22.6456 15.6125 22.6456 15.515V12.3565L25.0051 9.99696H26.5399L24.5927 11.9441C24.5236 12.0129 24.485 12.1067 24.485 12.2042V15.1471C24.485 15.3502 24.6498 15.515 24.8528 15.515H27.7958C27.8932 15.515 27.987 15.4763 28.0558 15.4072L30.003 13.4601V14.9948L27.6435 17.3543H24.485C24.3875 17.3543 24.2937 17.3929 24.2249 17.4621L22.0177 19.6693L19.0747 22.6122ZM27.4279 30.4452L22.4301 25.4474L22.9057 24.9717C23.0495 24.8279 23.0495 24.5954 22.9057 24.4516L21.8021 23.348C21.6583 23.2041 21.4258 23.2041 21.2819 23.348L20.8063 23.8236L19.855 22.8723L22.2778 20.4495L23.2291 21.4008L22.7534 21.8765C22.6096 22.0203 22.6096 22.2528 22.7534 22.3966L23.857 23.5002C24.0008 23.6441 24.2333 23.6441 24.3772 23.5002L24.8528 23.0246L29.8507 28.0224L27.4279 30.4452Z" fill="white"/>
<path d="M27.2206 25.2235L26.6707 25.7734L29.0038 28.1066L29.5538 27.5567L27.2206 25.2235Z" fill="white"/>
<path d="M25.6632 23.6681L25.1133 24.218L25.8909 24.9957L26.4409 24.4457L25.6632 23.6681Z" fill="white"/>
</g>
<defs>
<clipPath id="clip0">
<rect width="23.3333" height="23.3333" fill="white" transform="translate(8.66663 8)"/>
</clipPath>
</defs>
</svg>
