<svg width="20" height="15" viewBox="0 0 20 15" fill="none" xmlns="http://www.w3.org/2000/svg">
<path d="M18.2422 0.148926H1.75781C0.788555 0.148926 0 0.954606 0 1.94491V12.3529C0 13.3432 0.788555 14.1489 1.75781 14.1489H18.2422C19.2114 14.1489 20 13.3432 20 12.3529V1.94491C20 0.954606 19.2114 0.148926 18.2422 0.148926ZM18.0128 1.34625L17.7782 1.54584L10.6974 7.57002C10.2933 7.91382 9.70664 7.91382 9.30258 7.57002L2.22184 1.54584L1.98723 1.34625H18.0128ZM1.17188 2.21064L6.94109 7.11899L1.17188 11.0419V2.21064ZM18.2422 12.9516H1.75781C1.47469 12.9516 1.23789 12.7453 1.18363 12.4722L7.8807 7.91837L8.55273 8.49013C8.97203 8.84685 9.48606 9.02521 10 9.02521C10.514 9.02521 11.028 8.84685 11.4473 8.49013L12.1194 7.91837L18.8164 12.4722C18.7621 12.7454 18.5253 12.9516 18.2422 12.9516ZM18.8281 11.0419L13.0589 7.11903L18.8281 2.21064V11.0419Z" fill="#2C41FF"/>
</svg>
