<svg width="20" height="20" viewBox="0 0 20 20" fill="none" xmlns="http://www.w3.org/2000/svg">
<path d="M15.8293 12.3892C15.4192 11.9628 14.9246 11.7349 14.4005 11.7349C13.8805 11.7349 13.3817 11.9586 12.9547 12.385L11.6189 13.7146C11.509 13.6555 11.3991 13.6006 11.2934 13.5458C11.1412 13.4698 10.9975 13.398 10.8749 13.3221C9.62362 12.5285 8.48649 11.4943 7.39585 10.1562C6.86744 9.48926 6.51234 8.92785 6.25448 8.358C6.60112 8.04141 6.92239 7.71216 7.23521 7.39558C7.35357 7.27739 7.47194 7.15497 7.5903 7.03678C8.47803 6.15034 8.47803 5.00219 7.5903 4.11576L6.43625 2.96338C6.30521 2.83253 6.16993 2.69745 6.04312 2.56238C5.78948 2.30067 5.52316 2.03051 5.24839 1.77725C4.83834 1.37202 4.34798 1.15674 3.83225 1.15674C3.31652 1.15674 2.8177 1.37202 2.39497 1.77725C2.39074 1.78147 2.39074 1.78147 2.38652 1.78569L0.949241 3.23354C0.408149 3.77384 0.0995575 4.43234 0.031921 5.19637C-0.0695338 6.42894 0.294013 7.57709 0.573013 8.32845C1.25783 10.1731 2.28084 11.8826 3.80688 13.7146C5.65843 15.9223 7.88621 17.6656 10.431 18.894C11.4033 19.3541 12.7011 19.8986 14.151 19.9914C14.2398 19.9957 14.3328 19.9999 14.4174 19.9999C15.3939 19.9999 16.214 19.6495 16.8565 18.9531C16.8607 18.9446 16.8692 18.9404 16.8734 18.9319C17.0932 18.666 17.3469 18.4254 17.6132 18.1679C17.795 17.9949 17.981 17.8133 18.1627 17.6234C18.5812 17.1886 18.8011 16.6821 18.8011 16.1629C18.8011 15.6395 18.577 15.1371 18.1501 14.715L15.8293 12.3892ZM17.3426 16.834C17.3384 16.8383 17.3384 16.834 17.3426 16.834C17.1778 17.0113 17.0087 17.1717 16.8269 17.349C16.5521 17.6107 16.2731 17.8851 16.011 18.1932C15.5841 18.6491 15.081 18.8644 14.4216 18.8644C14.3582 18.8644 14.2905 18.8644 14.2271 18.8602C12.9716 18.78 11.8049 18.2903 10.9299 17.8724C8.53721 16.7158 6.43625 15.0738 4.69039 12.9928C3.24888 11.2579 2.28506 9.65389 1.64674 7.93166C1.25361 6.8806 1.10988 6.0617 1.17329 5.28923C1.21556 4.79536 1.40579 4.38591 1.75665 4.03555L3.19816 2.59615C3.40529 2.40197 3.62511 2.29645 3.8407 2.29645C4.10702 2.29645 4.32261 2.45685 4.45789 2.59192C4.46211 2.59615 4.46634 2.60037 4.47057 2.60459C4.72843 2.84519 4.97361 3.09424 5.23148 3.36017C5.36252 3.49525 5.4978 3.63032 5.63307 3.76962L6.78712 4.92199C7.23521 5.36943 7.23521 5.7831 6.78712 6.23055C6.66453 6.35296 6.54616 6.47537 6.42357 6.59356C6.06848 6.95658 5.7303 7.29427 5.36252 7.62352C5.35407 7.63196 5.34561 7.63618 5.34139 7.64463C4.97784 8.00764 5.04548 8.36222 5.12157 8.60282C5.1258 8.61549 5.13002 8.62815 5.13425 8.64081C5.43439 9.36685 5.85712 10.0507 6.49966 10.8654L6.50389 10.8696C7.67062 12.3048 8.90076 13.4234 10.2577 14.2803C10.431 14.39 10.6086 14.4786 10.7777 14.5631C10.9299 14.639 11.0736 14.7108 11.1962 14.7868C11.2131 14.7952 11.23 14.8079 11.2469 14.8163C11.3906 14.8881 11.5259 14.9219 11.6654 14.9219C12.0163 14.9219 12.2361 14.7024 12.3079 14.6306L13.7537 13.187C13.8974 13.0435 14.1257 12.8704 14.392 12.8704C14.6541 12.8704 14.8697 13.035 15.0007 13.1785C15.005 13.1828 15.005 13.1828 15.0092 13.187L17.3384 15.5128C17.7738 15.9434 17.7738 16.3866 17.3426 16.834Z" fill="#2C41FF"/>
<path d="M10.8242 4.75716C11.9317 4.94289 12.9378 5.46631 13.741 6.26833C14.5442 7.07034 15.0641 8.07497 15.2544 9.18091C15.3009 9.45951 15.5418 9.65368 15.8166 9.65368C15.8504 9.65368 15.88 9.64946 15.9138 9.64524C16.2266 9.59458 16.4338 9.2991 16.383 8.98674C16.1548 7.64864 15.5207 6.42873 14.5526 5.46209C13.5846 4.49545 12.3629 3.86228 11.0229 3.63434C10.71 3.58368 10.4184 3.79052 10.3634 4.09866C10.3084 4.40681 10.5114 4.70651 10.8242 4.75716Z" fill="#2C41FF"/>
<path d="M20.0058 8.82242C19.6296 6.61899 18.5897 4.61395 16.9918 3.01836C15.3939 1.42277 13.3859 0.384369 11.1793 0.00868773C10.8707 -0.0461871 10.579 0.16487 10.5241 0.473013C10.4733 0.785377 10.6805 1.07664 10.9933 1.13151C12.9632 1.46498 14.7598 2.39785 16.1886 3.82037C17.6174 5.24712 18.5474 7.0411 18.8814 9.00815C18.9279 9.28675 19.1688 9.48092 19.4436 9.48092C19.4774 9.48092 19.507 9.4767 19.5408 9.47248C19.8494 9.42605 20.0608 9.13057 20.0058 8.82242Z" fill="#2C41FF"/>
</svg>
